<?xml version="1.0" ?><svg id="Layer_1_1_" style="enable-background:new 0 0 64 64;" version="1.1" viewBox="0 0 64 64" xml:space="preserve" xmlns="http://www.w3.org/2000/svg" xmlns:xlink="http://www.w3.org/1999/xlink"><path d="M25,26v8c0,0.197,0.059,0.391,0.168,0.555L27,37.303V48c0,0.553,0.448,1,1,1h8c0.552,0,1-0.447,1-1V37.303l1.832-2.748  C38.941,34.391,39,34.197,39,34v-8c0-1.971-1.436-3.604-3.315-3.931c0.51-0.73,0.815-1.613,0.815-2.569c0-2.481-2.019-4.5-4.5-4.5  s-4.5,2.019-4.5,4.5c0,0.956,0.305,1.84,0.815,2.569C26.436,22.396,25,24.029,25,26z M32,17c1.378,0,2.5,1.121,2.5,2.5  S33.378,22,32,22s-2.5-1.121-2.5-2.5S30.622,17,32,17z M27,26c0-1.103,0.897-2,2-2h6c1.103,0,2,0.897,2,2v7.697l-1.832,2.748  C35.059,36.609,35,36.803,35,37v10h-6V37c0-0.197-0.059-0.391-0.168-0.555L27,33.697V26z"/><path d="M32,8c-2.495,0-4.952,0.381-7.304,1.133l0.608,1.904C27.459,10.349,29.712,10,32,10c12.131,0,22,9.869,22,22  s-9.869,22-22,22s-22-9.869-22-22c0-5.937,2.427-11.641,6.672-15.771L19.2,19.6c0.191,0.255,0.489,0.4,0.8,0.4  c0.065,0,0.132-0.007,0.198-0.02c0.378-0.076,0.679-0.363,0.772-0.738l2-8c0.075-0.299,0.007-0.615-0.182-0.857  C22.599,10.142,22.308,10,22,10h-8c-0.379,0-0.725,0.214-0.895,0.553S12.973,11.297,13.2,11.6l2.263,3.017  C10.718,19.135,8,25.437,8,32c0,13.233,10.767,24,24,24s24-10.767,24-24S45.233,8,32,8z M20.719,12l-1.18,4.719L16,12H20.719z"/><path d="M62.283,4.896c-0.001,0-0.001,0-0.002,0c-1.77-0.783-2.394-1.407-3.178-3.179C58.91,1.281,58.477,1,58,1  s-0.91,0.281-1.104,0.718c-0.784,1.771-1.408,2.396-3.18,3.179C53.281,5.091,53,5.523,53,6s0.281,0.909,0.719,1.104  c1.77,0.783,2.394,1.407,3.177,3.176C57.089,10.717,57.522,11,58,11s0.911-0.283,1.103-0.719c0.785-1.771,1.408-2.395,3.18-3.178  C62.719,6.909,63,6.477,63,6S62.719,5.091,62.283,4.896z M58,8.075C57.447,7.19,56.809,6.552,55.925,6  C56.809,5.447,57.448,4.81,58,3.925C58.553,4.81,59.191,5.447,60.075,6C59.191,6.552,58.553,7.19,58,8.075z"/><path d="M10.283,56.896c-0.001,0-0.001,0-0.002,0c-1.77-0.783-2.394-1.407-3.178-3.179C6.91,53.281,6.477,53,6,53  s-0.91,0.281-1.104,0.718c-0.784,1.771-1.408,2.396-3.18,3.179C1.281,57.091,1,57.523,1,58s0.281,0.909,0.719,1.104  c1.77,0.783,2.394,1.407,3.177,3.176C5.089,62.717,5.522,63,6,63s0.911-0.283,1.103-0.719c0.785-1.771,1.408-2.395,3.18-3.178  C10.719,58.909,11,58.477,11,58S10.719,57.091,10.283,56.896z M6,60.075C5.447,59.19,4.809,58.552,3.925,58  C4.809,57.447,5.448,56.81,6,55.925C6.553,56.81,7.191,57.447,8.075,58C7.191,58.552,6.553,59.19,6,60.075z"/></svg>